<?xml version="1.0" standalone="no"?>
<!DOCTYPE svg PUBLIC "-//W3C//DTD SVG 20010904//EN"
 "http://www.w3.org/TR/2001/REC-SVG-20010904/DTD/svg10.dtd">
<svg version="1.0" xmlns="http://www.w3.org/2000/svg"
 width="700.000000pt" height="400.000000pt" viewBox="0 0 700.000000 400.000000"
 preserveAspectRatio="xMidYMid meet">

<g transform="translate(0.000000,400.000000) scale(0.100000,-0.100000)"
fill="#000000" stroke="none">
<path d="M1438 3800 c-435 -42 -857 -215 -1083 -444 -91 -92 -142 -170 -179
-276 -28 -80 -30 -94 -30 -225 1 -225 42 -366 156 -536 161 -242 437 -412 886
-549 322 -99 489 -202 595 -370 48 -76 67 -139 67 -219 0 -167 -70 -242 -294
-315 -224 -73 -476 -78 -731 -15 -112 28 -210 78 -285 145 -75 67 -110 83
-195 91 -88 8 -158 -25 -221 -106 -169 -214 -77 -424 261 -594 98 -49 185 -73
343 -97 340 -51 742 -30 1038 55 414 120 680 340 759 630 9 33 19 119 22 190
11 277 -67 471 -263 654 -187 174 -459 319 -869 461 -455 158 -634 317 -636
564 -1 85 25 143 96 211 155 149 512 245 803 216 186 -19 240 -47 318 -166
116 -178 212 -213 370 -135 72 35 119 86 136 145 43 157 -142 464 -344 570
-186 98 -454 141 -720 115z"/>
<path d="M4796 3689 c-625 -56 -1131 -422 -1354 -981 -76 -191 -124 -414 -142
-667 -37 -497 124 -968 439 -1281 191 -190 391 -299 651 -356 115 -25 464 -25
625 0 292 45 575 151 750 281 86 64 200 180 248 252 l41 62 26 -68 c59 -151
180 -342 281 -444 65 -64 133 -100 228 -117 72 -13 157 4 228 46 92 53 161
183 150 280 -7 63 -46 137 -138 260 -157 209 -212 365 -239 674 -12 143 -13
411 0 595 5 77 14 267 21 423 l12 283 -36 52 c-263 380 -779 652 -1341 706
-125 13 -306 12 -450 0z m516 -609 c62 -10 145 -30 183 -43 141 -49 336 -161
445 -256 l45 -39 -1 -239 c-1 -262 -14 -380 -63 -577 -95 -375 -265 -608 -551
-755 -158 -81 -284 -113 -525 -131 -308 -24 -470 26 -638 196 -124 125 -201
281 -243 494 -22 112 -14 381 15 518 53 251 145 426 302 578 129 124 267 200
441 243 112 27 119 28 310 30 125 1 194 -4 280 -19z"/>
</g>
</svg>
